<svg width="36" height="36" viewBox="0 0 36 36" fill="none" xmlns="http://www.w3.org/2000/svg">
<path d="M22.2435 9.453C21.1365 9.402 20.8035 9.393 18 9.393C15.1965 9.393 14.865 9.4035 13.758 9.453C10.9095 9.5835 9.5835 10.932 9.453 13.758C9.4035 14.865 9.3915 15.1965 9.3915 18C9.3915 20.8035 9.4035 21.135 9.453 22.2435C9.5835 25.062 10.9035 26.418 13.758 26.5485C14.8635 26.598 15.1965 26.61 18 26.61C20.805 26.61 21.1365 26.5995 22.2435 26.5485C25.092 26.4195 26.4165 25.0665 26.5485 22.2435C26.598 21.1365 26.6085 20.8035 26.6085 18C26.6085 15.1965 26.598 14.865 26.5485 13.758C26.4165 10.9335 25.089 9.5835 22.2435 9.453ZM18 23.3925C15.0225 23.3925 12.6075 20.979 12.6075 18C12.6075 15.0225 15.0225 12.609 18 12.609C20.9775 12.609 23.3925 15.0225 23.3925 18C23.3925 20.9775 20.9775 23.3925 18 23.3925ZM23.6055 13.656C22.9095 13.656 22.3455 13.092 22.3455 12.396C22.3455 11.7 22.9095 11.136 23.6055 11.136C24.3015 11.136 24.8655 11.7 24.8655 12.396C24.8655 13.0905 24.3015 13.656 23.6055 13.656ZM21.4995 18C21.4995 19.9335 19.932 21.4995 18 21.4995C16.068 21.4995 14.5005 19.9335 14.5005 18C14.5005 16.0665 16.068 14.5005 18 14.5005C19.932 14.5005 21.4995 16.0665 21.4995 18ZM18 0C8.0595 0 0 8.0595 0 18C0 27.9405 8.0595 36 18 36C27.9405 36 36 27.9405 36 18C36 8.0595 27.9405 0 18 0ZM28.437 22.329C28.2645 26.1465 26.139 28.2615 22.3305 28.437C21.21 28.488 20.8515 28.5 18 28.5C15.1485 28.5 14.7915 28.488 13.671 28.437C9.855 28.2615 7.7385 26.1435 7.563 22.329C7.512 21.21 7.5 20.8515 7.5 18C7.5 15.1485 7.512 14.7915 7.563 13.671C7.7385 9.855 9.8565 7.7385 13.671 7.5645C14.7915 7.512 15.1485 7.5 18 7.5C20.8515 7.5 21.21 7.512 22.3305 7.5645C26.148 7.74 28.266 9.8625 28.437 13.671C28.488 14.7915 28.5 15.1485 28.5 18C28.5 20.8515 28.488 21.21 28.437 22.329Z" fill="#732CCD"/>
</svg>
