<svg width="222" height="222" viewBox="0 0 222 222" fill="none" xmlns="http://www.w3.org/2000/svg">
<g filter="url(#filter0_d)">
<path d="M111.691 48.8363C81.486 49.1575 57.0981 73.7478 57.0981 104.037C57.0981 134.522 81.8142 159.238 112.299 159.238C142.791 159.238 167.507 134.522 167.507 104.037C167.507 85.4333 158.301 68.9837 144.201 58.9758C144.175 59.0245 144.155 59.0761 144.129 59.1244C153.048 66.2606 158.763 77.239 158.763 89.5524C158.763 111.063 141.331 128.502 119.821 128.502C98.3102 128.502 80.8715 111.063 80.8715 89.5524C80.8715 68.042 98.3102 50.6031 119.821 50.6031C122.008 50.6031 124.151 50.7892 126.239 51.1371C126.295 50.9792 126.347 50.8194 126.411 50.6651C121.906 49.4711 117.178 48.8292 112.299 48.8292C112.097 48.8292 111.894 48.8292 111.691 48.8363Z" fill="url(#paint0_linear)"/>
<path d="M144.401 58.5595C144.336 58.6994 144.272 58.8395 144.201 58.9758C158.301 68.9837 167.507 85.4333 167.507 104.037C167.507 134.522 142.791 159.238 112.299 159.238C81.8142 159.238 57.0982 134.522 57.0982 104.037C57.0982 73.7479 81.4859 49.1575 111.691 48.8362C111.461 48.8293 111.231 48.8293 111 48.8293C76.6672 48.8293 48.8291 76.6672 48.8291 111C48.8291 145.34 76.6672 173.171 111 173.171C145.34 173.171 173.171 145.34 173.171 111C173.171 88.958 161.7 69.5991 144.401 58.5595Z" fill="#E6E6E6"/>
<path d="M131.005 70.7862C130.397 70.845 129.805 70.7826 129.252 70.6207L125.862 76.6062C126.718 77.3584 127.302 78.4243 127.42 79.648C127.57 81.2014 126.937 82.6491 125.843 83.6017L129.133 88.2091C129.555 88.0309 130.012 87.9126 130.492 87.8661C133.047 87.619 135.319 89.49 135.566 92.0449C135.813 94.6 133.942 96.8715 131.387 97.1185C128.832 97.3657 126.561 95.4947 126.314 92.9397C126.162 91.3705 126.81 89.909 127.924 88.9569L124.642 84.3602C124.208 84.5483 123.737 84.6736 123.241 84.7216C120.948 84.9434 118.884 83.4583 118.306 81.3043L112.996 81.6149C112.937 83.9293 111.161 85.8897 108.798 86.1183C106.243 86.3654 103.971 84.4944 103.724 81.9393C103.477 79.3844 105.348 77.1129 107.903 76.8657C110.189 76.6448 112.247 78.1193 112.832 80.2618L118.149 79.9508C118.218 77.6459 119.991 75.697 122.346 75.4692C123.168 75.3896 123.96 75.5303 124.666 75.8414L127.965 70.0173C126.852 69.2685 126.07 68.0464 125.931 66.6073C125.684 64.0522 127.555 61.7807 130.11 61.5337C132.665 61.2865 134.936 63.1575 135.184 65.7126C135.431 68.2675 133.56 70.5392 131.005 70.7862ZM120.189 55.2913C106.48 56.6171 96.4403 68.8058 97.7661 82.5155C99.0919 96.2253 111.281 106.265 124.99 104.939C138.7 103.613 148.739 91.4244 147.414 77.7145C146.088 64.0048 133.899 53.9656 120.189 55.2913Z" fill="#732CCD"/>
</g>
<defs>
<filter id="filter0_d" x="41.8291" y="41.8292" width="138.342" height="138.342" filterUnits="userSpaceOnUse" color-interpolation-filters="sRGB">
<feFlood flood-opacity="0" result="BackgroundImageFix"/>
<feColorMatrix in="SourceAlpha" type="matrix" values="0 0 0 0 0 0 0 0 0 0 0 0 0 0 0 0 0 0 127 0"/>
<feOffset/>
<feGaussianBlur stdDeviation="3.5"/>
<feColorMatrix type="matrix" values="0 0 0 0 0.183821 0 0 0 0 0.183821 0 0 0 0 0.183821 0 0 0 0.3 0"/>
<feBlend mode="normal" in2="BackgroundImageFix" result="effect1_dropShadow"/>
<feBlend mode="normal" in="SourceGraphic" in2="effect1_dropShadow" result="shape"/>
</filter>
<linearGradient id="paint0_linear" x1="57.0982" y1="104.034" x2="167.507" y2="104.034" gradientUnits="userSpaceOnUse">
<stop stop-color="#732CCD"/>
<stop offset="0.285979" stop-color="#7228DD"/>
<stop offset="0.600559" stop-color="#7B3EC8"/>
<stop offset="0.809921" stop-color="#8433B4"/>
<stop offset="1" stop-color="#8433B4"/>
</linearGradient>
</defs>
</svg>
